/* XPM */
static char *_9af22b3b5274171be01e99d5fb854fbjy0y0ppWSfHQH76p[] = {
/* columns rows colors chars-per-pixel */
"16 16 3 1 ",
"  c #5F6060",
". c gray38",
"X c #A7ABAC",
/* pixels */
"................",
" XXXXXXXXXXXXXX.",
".XXXXXXXXXXXXXX.",
".XXXXXXXXXXXXXX.",
".XXXXXXXXXXXXXX.",
".XXXXXXXXXXXXXX.",
".XXXXXXXXXXXXXX.",
".XXXXXXXXXXXXXX.",
".XXXXXXXXXXXXXX.",
".XXXXXXXXXXXXXX.",
".XXXXXXXXXXXXXX.",
".XXXXXXXXXXXXXX.",
".XXXXXXXXXXXXXX.",
".XXXXXXXXXXXXXX.",
".XXXXXXXXXXXXXX.",
"................"
};
