/* XPM */
static char *_19e91e2901c41cdeec41d39645a71bfFGPjU0pGgtTYeqIU[] = {
/* columns rows colors chars-per-pixel */
"16 16 9 1 ",
"  c None",
". c #017379",
"X c #01787E",
"o c #02888F",
"O c #0499A0",
"+ c #05A0A8",
"@ c #05A3AB",
"# c #8FC2C7",
"$ c #9DC8CC",
/* pixels */
"       @@       ",
"       @@       ",
"       @@       ",
"       @@       ",
"     #@@@@#     ",
"    #@OOO@@#    ",
"    @@oXXo@@    ",
"   $@OX..XO@$   ",
"   $@OX..XO@$   ",
"    @OoXXo@@    ",
"    #@@OOO@#    ",
"     #@@@@#     ",
"       $$       ",
"                ",
"                ",
"                "
};
