/* XPM */
static char *eaa3eba3dace4ad99dcaac29215208d9hPC3W3IxwWTs4nHE[] = {
/* columns rows colors chars-per-pixel */
"64 64 188 2 ",
"   c gray5",
".  c #151515",
"X  c #191915",
"o  c #1C1C1B",
"O  c #1F221F",
"+  c #22221F",
"@  c #242523",
"#  c #272826",
"$  c #2A2B26",
"%  c #2D2D2C",
"&  c #2E302A",
"*  c #31322E",
"=  c #36382E",
"-  c #393A2F",
";  c #353533",
":  c #393737",
">  c #373935",
",  c #3A3B35",
"<  c #373938",
"1  c #3C3D3A",
"2  c #403F3D",
"3  c #3F4137",
"4  c #3E413D",
"5  c #414337",
"6  c #42433C",
"7  c #46483E",
"8  c #494A3E",
"9  c #3F4141",
"0  c #444542",
"q  c #484645",
"w  c #464944",
"e  c #4A4B44",
"r  c #464B49",
"t  c #4C4D4A",
"y  c #504F4B",
"u  c #4E5144",
"i  c #4E524C",
"p  c #515246",
"a  c #555847",
"s  c #53544C",
"d  c #56594B",
"f  c #5A5C4D",
"g  c #4E5351",
"h  c #545551",
"j  c #555953",
"k  c #5B5C54",
"l  c #575F5A",
"z  c #5C5E5A",
"x  c #615F56",
"c  c #615F58",
"v  c #5F614F",
"b  c #566157",
"n  c #5E6154",
"m  c #5D625C",
"M  c #5F685F",
"N  c #61634F",
"B  c #626454",
"V  c #666955",
"C  c #696D57",
"Z  c #63645C",
"A  c #69675B",
"S  c #656A5B",
"D  c #6A6D5C",
"F  c #716F5F",
"G  c #66705F",
"H  c #6D725D",
"J  c #707157",
"K  c #72745D",
"L  c #74795E",
"P  c #787B5E",
"I  c #5F6661",
"U  c #5F6960",
"Y  c #636661",
"T  c #646B63",
"R  c #6B6D63",
"E  c #646D68",
"W  c #6B6E69",
"Q  c #706F61",
"!  c #667163",
"~  c #6C7364",
"^  c #6E7866",
"/  c #66716A",
"(  c #6C746B",
")  c #6E7A6B",
"_  c #727563",
"`  c #747A64",
"'  c #7A7C65",
"]  c #72756B",
"[  c #737B6C",
"{  c #7A7C6B",
"}  c #6D7771",
"|  c #6F7A70",
" . c #737671",
".. c #747B72",
"X. c #7A7E74",
"o. c #7E7F78",
"O. c #827F6E",
"+. c #778066",
"@. c #7D8266",
"#. c #76826E",
"$. c #7C836C",
"%. c #7F886C",
"&. c #768172",
"*. c #7B8473",
"=. c #7E8A74",
"-. c #7E8379",
";. c #7E8B78",
":. c #818565",
">. c #848A67",
",. c #80846C",
"<. c #82856D",
"1. c #848A6C",
"2. c #8A8E6E",
"3. c #8A906E",
"4. c #858572",
"5. c #828574",
"6. c #888673",
"7. c #848B74",
"8. c #888A76",
"9. c #8A8D74",
"0. c #8E8E75",
"q. c #828679",
"w. c #848B7A",
"e. c #8A8D7B",
"r. c #908E79",
"t. c #869174",
"y. c #8C9374",
"u. c #8D9876",
"i. c #869179",
"p. c #8C937B",
"a. c #8E997A",
"s. c #929277",
"d. c #929575",
"f. c #959A75",
"g. c #989C77",
"h. c #93957B",
"j. c #97977D",
"k. c #98977F",
"l. c #949B7C",
"z. c #9B9C7D",
"x. c #96A07E",
"c. c #9CA27D",
"v. c #A1A57E",
"b. c #A4A87E",
"n. c #878B80",
"m. c #8C8D80",
"M. c #8E9181",
"N. c #929582",
"B. c #999783",
"V. c #969A84",
"C. c #9B9C82",
"Z. c #9B9D83",
"A. c #9D9D81",
"S. c #9A9D89",
"D. c #96A181",
"F. c #9DA382",
"G. c #9EA885",
"H. c #9DA489",
"J. c #A2A484",
"K. c #A8A686",
"L. c #A5AA84",
"P. c #A9AC86",
"I. c #A4A58A",
"U. c #A8A78A",
"Y. c #A5AB8A",
"T. c #AAAD8B",
"R. c #B0AD8E",
"E. c #ACB185",
"W. c #A7B28F",
"Q. c #ACB28C",
"!. c #B1B48D",
"~. c #B6B98C",
"^. c #B9BB8C",
"/. c #A7AA90",
"(. c #AEAD91",
"). c #B0AF92",
"_. c #AEB392",
"`. c #B3B592",
"'. c #B5BA94",
"]. c #B9BC95",
"[. c #B7BC98",
"{. c #BBBE99",
"}. c #BDC196",
"|. c #BDC29A",
" X c #C2C59B",
".X c #C4C99C",
"XX c #C4CAA2",
"oX c #C9CFA8",
/* pixels */
"  % < 1 9 q : 9 q : % : 2 2 1 o o : 0 t q q 6 2 e 0 2 2 2 2 2 # . # * = 1 7 e e t e e e y 0 ; @ o 1 < % > , 1 , 2 0 1 % 1 < 9 O ",
"@ t j z c h t z Y W Y t t z k ; : c ] { c y h O.8.D A { A h x q : y x V _ _ { 8.8.5.' _ Q k s q 6 z s h Z Z Y Y Z c r 0 0 r t 1 ",
"@ i I E I g z W  .X.X. .Z w : ; y y k Z y x { C.I.6.R ] Q Q { f 2 x Q { 6.4.0.C.j.h.0.{ ' R R s 1 z z ] X.X...] Y z t Z T 9 r < ",
"O g j z z z W W  .X.O.O.W k h 1 0 k e 1 c <.8.j.I.A.] A 6.S.B.Q y O.h.k.y.0.k.J.C.C.p.$.4.$.{ B 1 k ] o.X.X.o.R z t r Y T r r r ",
"; i Y ( j I W W  .W  .n.X.{ ] h h y e f ~ 4.8.J.R./.j.R O.U.S.Q x r.A.z.k.0.s.c.C.B.s.%.<.$.$.Z 0 W _ ] X.*.{ Y j 0 z E / I z r ",
"1 i I ( g Y ..W  .X.X.O.5.e.m.Z k q D c.g.8.j.U.).).A.Q ] I.I.Q x k.K.J.c.s.B.J.J.C.j.6.6.8.8.n e ] [ ] { [ R Z i w W  ./ / I g ",
"0 z /  .g Y o...q.n.w.w.8.N.m.c c q ` c.J.j.J.(.R.U.B.O.A O.B.A A C.J.J.J.K.A.A.J.J.k.s.u.h.5.k q ] { ] q.O.W Y s z X. .W W I g ",
"9 z W Y q Y o.o.q.8.m.N.m.m.r.Z h h ` $.,.J.R.R.R.I.z.j.Q Q { y f 8.J.J.z.z.K.U.J.J.F.A.A.V.8.f 7 _ { 6.e.w. .Y r  . .( / E m t ",
": g j Y t z W q.o.w.e.M.e.5.6.z h x 6.B.J.U.).R.R.z.s.0.Q x c 2 a 8.K.J.J.z.K.K.I.F.J.A.j.j.$.d s { 6.p.m.w.] k k o.] W z c z t ",
"; y c z h k R ] o.n.w.m.8.5.` t y c 0.I.U./.U.R.K.0.' A A r.O.2 h h.U.J.k.A.J.I.K.J.I.J.A.C.5.s 0 ] w.e.N.e.Y s W X. .Y c z y q ",
": z W ] Y h Z Q X.n.m.N.e.O.{ e y c r.U.).U.U.R.z.O.0.O.6.R.I.Q k h.K.J.J.U.U.I.K.A.A.A.A.C.{ s * s ] { 5.-.Z w z Z z q r q 2 < ",
"1 z  . .X.h h Y { q.m.B.h.O.{ y 6 Z 6.k.B.J.).R.z.O.A O.K.R.U.O.x r.T.U.L.J.z.K.U.J.K.J.C.s.{ a > e 1 k Q k k W Y s j c Z z h r ",
": Y  .o.o.W h ] X.O.8.N.e.{ Y 0 2 y F 6.k.k.z.z.6.F ' s.K.J.B.] q ,.U.K.j.g.K.K.U.I.K.z.0.9.<.a a *.e 6 q m o.{ ] A h h Y Y z i ",
": z W W  .X.Y z W X.e.e.q.W k 1 % 2 e c O.k.z.r.Q O.s.K.).J.{ h 2 _ z.K.K.C.K.A.J.I.z.f.2.0.6.V 7 C B m j ] 5.5.{  .Z 0 t k h r ",
"; q h Y Y ] W s z ..5.] 8.q.{ t : x Q c A 6.r.F F O.0.s.C.8.A 6 * f { r.A.A.s.0.g.C.h.k.r.r.6.x q W R k k ] ] { [ ] Z t k e i 1 ",
"o 2 9 q q h k t 0 y h h Y A h ; o q c x y N k y x x a s s e 6 % 6 <.<.p x B f s f k k x f x t = # t k B t k k k h j t 2 t 0 < @ ",
"o : j c z j h h k j k y h c k ; % y h e k A S n d d B A c A A q 8. XL.f k B V A S Z n n k s h 0 * h k s s s s t s s y q r r 2 % ",
": q t Y  .o.o.X.5.q.8.o.5.e.5.k k 8.5.] V.I.I.I.z.6.6.6.$.B.S.D a $.K R C.U.I.T.T.U.A.y.s.B A j t 4.w.5.5.X.-.X.] X.] Y h t t t ",
"; h z ( X.-.O.o.w.m.M.M.h.N.5.k Z p.N.Z._.`.].T.K.:.v.K.A.).J.A Z h.9.8.U.`.`.`.!.`.U.j.,.{ 5.Q h e.h.N.N.e.e.6.X.R Y X. .W z 1 ",
"9 h T  .X...] [ X.w.p.M.S.B.N.Y A B./._.`.R.`.T.K.s.2.s.T.].J.B Z C.T.T.`.`.`.].T.z.J.U.I.J.m.Q s e.N.N.M.p.w.[ ] ] ] *. . .z 1 ",
"1 l W  .X.] ( W ! { m.V.B.S.N.R Z S._.`._.J.J.T.`.`.`.`.{.[.J.A R I.'.P.K.R.~.`.T.z.K.`._./.F.` h m.V.V.p.e.*.[ ( ( o.X...W z r ",
"0 j Y W ( ( ] Z R 7.5.M.S.S.B.Q Z H._._._._.`.].{.|.{. XXX].U._ H U.`.Q.T.T.!.`.`.`.T.T.`.Y.A.` k N.S.B.e.w.*.{ X.o.-.X.X.W z r ",
"9 m W Y W ] ] d *.V.*.M.B.S.N.Y k j._._._.'.[.{.`.'.].|.{.{.J.D ` R.[.[.(.).].'.`.`.].`.Q.T.z.R k N.Z.N.p.e.e.e.6.o.X...X.] z 4 ",
"1 m  .R W W X.R n _ X.e.M.N.B.{ k p.Q.`.[.{.{.R.T.T.`.|. X XU.F ' R.|.{.'.].{.].'.'.`.`.`.T.j.B x h.Z.N.N.e.e.q.5.X.-.X...( m r ",
"< z ( (  ...X.......[ ] e.S.Z.] B j._.[.|.|.|.[.Q.P.'. X.X XK.B ` R.}.R.R.].].^.].'.{.`._._.z.B Z B.S.B.N.p.p.q.[ ]  .X.&.| I r ",
"1 j  . ...X.o.-.q.-.5.{ N.C.S.{ Z z.`.[.'.[.|.|.Q.Q.]. X.X}.K.F K R.}.R.E.^.{.{.'.'.'.'.`.T.F.D Z j.H.H.B.B.m.q.[ W ~ ]  . .S r ",
"1 z ( / } X.-.q.q.5.,.6.N.S.I.O.A D.[.[.}.}.}. X X]. X.X X^.K.K D K. X}.].^.].|.|.].'.`.'.!.F.~ D B.Z.V.V.7.e.e.q.] ( X...( I t ",
"1 I }  . ...X.q.q.e.*.5.h.S.I.O.A l._.}.}.}. X X.X X^.!.~.^.L.C K R.}. X{.^.].{.].].!.v.T.Q.L.' R Z.d.6.p.e.p.i.w.q.{ .. .( E g ",
"1 l W }  . .] q.n.n.e.M.F.H.J.5.C y.P.].].}. X X.X}.^.^.~.K.2.d K !. X X X{.~.K.c.J.Q.L.T.'.T.,.D V.s.0.9.M.w.w.q.q.-... ./ T h ",
"< g E }  .W W { ;.w.p.V.V.B.C.,.V y.K.'.}.}..X.X}.~.^.^.~.P.s.f J P. X].^.~.K.K.E.>.E.P.E.'.T.' A F.C.g.h.p.' #.D *.*.[ M M I h ",
"< r I E E Y z Y ] [ 5.8.e._ ' _ B :.z.J.L.T.!.!.E.P.b.b.E.!.L.K 6 >.c.d.c.P.z.f.g.P g.c.g.L.g.K d s.C.l.y.9.` _ d ( ) M i 0 t w ",
"o < 9 1 9 0 q w i s k k a k c.Q.V d F V V V H K ' P ' @.' K N , X 8 f N K _ H B a f V H K _ C 5 % N ` _ V k a 7 e s q q 1 2 0 # ",
"o e w e m S W ^ X.5.*._ S u f.c.v f S _ ,.y.3.>.{ S _ ,.6.,.{ f p ' ' ' y.e.9.9.V.l.p.9.5.5.' s $ d D D ] _ ` _ A n n k s m k 0 ",
"; s e b T W _ ] 7.w.p.t.1.L C a e n K d.L.E.c.g.f.' 2.K.J.>.P v ' Y.c.K.].{.].|.|.|.Q.T.T.d.2.V 5 _ 9.j.d.p.e.8.*.^ ! D m T Z h ",
"< q z I E T ~ ) *.e.p.V.l.l.` f C u.G.L.E.c.c.c.v.2.K K ' 3.g.J ' K.!.!.'.'.|. XXXXX|.|.[.Q.L.` u ` 9.d.V.p.u.@.#.{ ! T T / z t ",
"; j T E ( ^ ) ) ) 9.p.a.a.l.l._ _ d.c.L.E.L.c.c.g.:.2.' K f.g.L _ g.b.P.Q.'.|.XXXXXXXXXX[.Q.L.$.d y.A.V.a.u.w.$.` &.^ T ( / m i ",
"4 l / / | &.&.) [ w.u.p.a.c.V.` H l.F.J.L.P.P.c.2.' d.d.L P 3.J J f.c.b.Q.'.|.XXoXoXoXXX|.Q.F.5.f d.l.V.a.u.t.5.+.~ ! ( ( / U i ",
"< b } } | &.&.&.&.u.p.p.7.1.y.P K y.g.c.L.G.Y.f.P >.f.c.y.K J f V 3.>.3.L.}.|.XXoXoXoXXX|.Y.g.#.n d.y.l.p.i.=.[ ^ ^ ~ / ) ) I g ",
"< b } } ) ) &.=.;.i.i.N.$.>.9.` H a.l.g.c.L.b.>.@.3.f.f.x.y.K 8 V @.@.3.W.|.|.|.|.XXXX|.`.G.y.` V h.u.p.p.5.+.+.` ! ~ ~ | ) I h ",
"9 I / } &.#.&.*.;.;.p.p.=.%.1.' G 1.y.t.x.x.y.L >.x.c.c.Y.L.y.v V @.>.x.Q.|.|.|.}.}.].'.P.l.y.' B u.p.p.i.[ [ ^ =.#.) ( | ( b i ",
"r U } | &.&.#.&.;.;.i.i.=.%.1.` V :.y.y.1.y.+.P u.F.G.G.P.L.F.H C 3.3.b.'.|.}.}.}.'.'._.Y.D.u.' k u.t.u.;.#.+.^ =.*.) / ) / I i ",
"9 U ) | | ) ) &.;.*.;.i.%.#.$.G V 1.u.t.,.1.L 1.l.F.c.x.G.Y.F.L C x.L.~.[.}.|.}.[.}.}._.Y.F.a.#.n a.i.;.=.=.#.#.=.*.&.&.#.) m i ",
"r b ) &.#./ / #.) #.=.i.;.=.%.H H 7.t.u.t.P 5.l.x.x.x.x.F.G.a.G C D.W.'.[.[.'.'.[.}.'.L.c.F.a.` B p.=.=.;.;.#.=.*.*.&.&.&./ b g ",
"4 g U / #./ / ` #.) @.=.=.%.t.^ ` 7.t.t.,.$.a.a.a.u.a.x.x.x.a.C _ F.L.W.Q.'.Q.L.P.}.'.W.F.x.a.L k 9.%.%.=.=.=.=.*.&.&.#.| ( U i ",
"4 g M G ~ +.) #.^ #.=.;.w.' $.A G $.+.%.` 5.a.a.y.%.t.u.y.l.u.G _ F.x.l.L.Q.T.F.L.!.~.W.G.a.$.K f { D ` #.;.;.&.*.=.&.) ! T M n ",
"w b M G U ! ) U ! #.&.=.$.S _ B B n C H ` @.t.t.y.t.u.u.y.t.+.f C ,.y.u.t.F.x.x.G.Y.Y.G.D.a.$.B a ` Z [ ^ #.#.^ ) #.) ! b Z R m ",
"9 b b n b M U U S S G H ` ` B 7 e D L V C L ^ +.+.$.+.+.L B v 8 d B $.x.1.@.t.y.y.u.u.u.=.+.G u 5 B n H n V M n M S S j s s B s ",
"O 3 4 7 4 3 3 3 3 3 3 3 3 7 e $ + e u u u a 8 8 a a f a a 8 - $ o & - 5 u d n a 8 v v 8 8 3 = * $ e e e 8 5 5 3 , * = % % * % # ",
"$ e 3 5 7 u s i v b v a v v G p > 7 f C H ` ^ H H L ` B ` H 8 3 , w u n H H ` ^ G S C S B B C f $ d B B n n v b a b b b v b d w ",
"0 b T s b U ^ U M G G G ^ H n p u H ,.9.a.a.i.i.>.%.3.@.u.u.@.C d B ` @.1.t.y.t.1.%.+.L C K Z u 7 Z B _ +.+.^ G G G ! U b M n j ",
"i Z Z M G ) *.&.+.&.#.=.+.S L S S K p.H.H.D.V.a.u.u.u.u.y.1.l.5.C ` u.y.u.u.a.x.G.x.l.%.H L ` C k ' _ { ;.;.=.^ ^ ^ ^ / ! M M j ",
"1 h T E ) ) &.*.*.;.;.=.) ^ @.` G ' N.H.G.Y.D.D.f.f.f.x.x.G.Y.y.S ,.x.x.x.c.c.L.Q.L.F.y.1.1.7.` B 9.*.=.;.#.#.) ^ +.^ ^ ( ! b g ",
"4 i U | | &.&.&.*.%.=.;.=.=.t._ D 7.D.H.H.Y.V.y.u.c.c.c.G.E.Y.6.C 1.l.G.W.W.Q.`.E.L.Y.F.l.t.y.#.B 6.=.i.i.=.&.) +.) ) ) &.| b i ",
", j E | | &.&.*.=.#.=.7.=.t.y.[ ~ p.F.H.Y.Q.D.l.l.L.Q.Q.W.Q.L.@.C y.F.Y.Y.E.!.'.'.Q.Q.P.c.y.y.#.f ` @.#.=.i.;.=.) ) ) ) &.| / b ",
"; j / | / ..&.*.#.^ #.5.w.9.p.[ G d.G.G.Y.W.G.F.x.L.Q.Q.Q.Q.E.7.C y.L.L.G.b.Q.'.[.Q.L.L.G.l.u.` f ,.1.%.=.p.;.;.;.&.&.&.&.../ b ",
"> g U | ( T ) &.#.^ ^ =.i.u.s.{ G p.Y./.W.W._.T.Q.'.~.Q.L.P.W.y.A 7.c.c.c.L.L.E.~.Q.P.E.c.a.9.` n t.%.=.i.p.i.i.=.&...&.&.) E z ",
"1 j E / / D ! ] ! +.` 7.i.i.a.$.S u./.W.W._.[.|.}.'.'.Q.Q.Y.L.9.a V 3.g.g.g.L.T.~.W.Q.L.x.u.a.[ V y.,.#.i.M.i.i.=.*.#.&.| ) E j ",
"1 g E / T T ~ ( ^ ^ &.i.a.y.y.$.D d.T._._.Q._.'.'.Q.L.L.E.L.b.2.B f J 2.g.g.c.b.c.b.~.E.c.x.g.+.B y.,.%.t.u.p.i.=.=.&.#.&.| / r ",
"< g U / ! U E ! ^ $.7.p.p.u.p._ D p.T.Q.Q.E.G.K.Q.].'.`.E.T.P.:.N ' P L 2.f.c.b.c.Q.Q.P.b.c.F.$.B g.l.u.a.p.u.w.#.#.*.&.} ) / g ",
"< j T E / E T ~ ) &.=.i.p.h.j._ S l._._._._.Q.Q.Q.'.{.{.`.Q.K.,.V 3.d.J J >.f.P.~.~.~.Q.L.c.c.+.B j.D.V.a.i.i.$.[ [ &.../ ) U g ",
"< g Y Y I I E [ ) &.7.8.p.p.8.D n y.U._.`._.`.`.'.'.|.{.'._.T.0.V s.g.<.P K >.b.E.P.b.P.Y.U.G.%.d ,.y.l.N.a.i.&.` ^ / ~ / U M w ",
"< g z I z m T ) ] *.*.8.e.4.D s s ,.F.U._.I.`.[.'.].{.{.`.P.T.p.V ' O.<.s.6.<.g.b.c.c.E.L.d.,.D 5 V $.l.N.u.a.i.=.^ ^ / U b i t ",
"< z Y j Z Z Z ] [ X.{ *.*.' _ e 7 H { p.h.h.F.I.I.I.I.U.k.,.s.' u F <.0.J.0.K 4.y.g.J.F.y._ D d N y.N K ,.y.9.e.7.R _ R M 0 k q ",
". < : < ; > * 1 6 e q 6 7 7 , @ o 6 p u s j n k a e s u e 7 e , $ e d d d t 8 8 a f v f u 7 5 p f.P.@.1 w d Z Z n i e e 0 % , o "
};
