/* XPM */
static char *_544c679010b44b68213307dbbe4cf16TNb8YLyPFN7H7FLt[] = {
/* columns rows colors chars-per-pixel */
"16 16 4 1 ",
"  c #131A1C",
". c #141B1E",
"X c #173538",
"o c #173638",
/* pixels */
"oooooooooooooooo",
"o..............o",
"o..............o",
"o..............o",
"o..............o",
"o..............o",
"o..............o",
"o .............o",
"o..............o",
"o..............o",
"o..............o",
"o..............o",
"o..............o",
"o..............o",
"o..............o",
"oooooooooooooooo"
};
